<?xml version="1.0" encoding="UTF-8"?>
<svg id="Layer_1" xmlns="http://www.w3.org/2000/svg" xmlns:xlink="http://www.w3.org/1999/xlink" version="1.1" viewBox="0 0 124.6 134.5">
  <!-- Generator: Adobe Illustrator 29.4.0, SVG Export Plug-In . SVG Version: 2.1.0 Build 152)  -->
  <defs>
    <style>
      .st0 {
        fill: url(#linear-gradient1);
      }

      .st1 {
        fill: url(#linear-gradient);
      }
    </style>
    <linearGradient id="linear-gradient" x1="2.6" y1="105.5" x2="102.4" y2="5.7" gradientUnits="userSpaceOnUse">
      <stop offset="0" stop-color="#8b1622"/>
      <stop offset=".2" stop-color="#991825"/>
      <stop offset=".4" stop-color="#ae1b2a"/>
      <stop offset=".7" stop-color="#ba1d2d"/>
      <stop offset="1" stop-color="#bf1e2f"/>
    </linearGradient>
    <linearGradient id="linear-gradient1" x1="50.2" y1="113" x2="114.5" y2="48.6" xlink:href="#linear-gradient"/>
  </defs>
  <path class="st1" d="M59.6,35.3c19.1-10.7,42.7-12.7,64.9-11.6.1-5.3,0-10.6-.5-15.8,0,0,0,0,0,0-4.3-1.9-8.9-3-13.6-3.9-6.7-1.4-13.5-2.3-20.2-2.9C82.4.4,74,0,65.4,0c-.4,0-.8,0-1.2,0,0,0-.1,0-.2,0-10.3,0-20.4.3-29.5,1-7.3.6-14.6,1.6-21.7,3.2-3.9.8-7.8,1.9-11.5,3.4-.2,0-.5.2-.7.2C-.5,19.1,0,30.6,1.5,42c0,.4,0,.9.1,1.3h0c.7,5.2,1.7,10.2,2.8,15.2,5.8,25.1,19.8,55.7,42.5,69.5,1.7,1.1,5.1,2.9,8.5,4.4,2.3,1.1,4.6,2,5.9,2.1.3,0,.6,0,.9,0,.3,0,.6,0,.8,0,1-.1,2.7-.7,4.5-1.5,3.8-1.5,7.9-3.7,9.9-4.9,3.5-2.1,6.7-4.6,9.8-7.4-53.2,8.4-78.1-57.2-27.7-85.3Z"/>
  <path class="st0" d="M69,50.4c-19.2,23.9-6.7,60.5,25.5,62.1.2,0,.3,0,.4,0,12.7-15.4,21-36.2,25.1-54.1,2.3-10.1,3.9-20.6,4.4-31.1-20.7.6-42.2,6.6-55.4,23.1Z"/>
</svg>